<svg width="512" height="512" viewBox="0 0 512 512" fill="none" xmlns="http://www.w3.org/2000/svg">
  <rect width="512" height="512" rx="128" fill="#1E293B"/>
  <path d="M256 128C256 119.163 263.163 112 272 112H368C376.837 112 384 119.163 384 128V224C384 232.837 376.837 240 368 240H272C263.163 240 256 232.837 256 224V128Z" fill="#10B981"/>
  <path d="M128 272C128 263.163 135.163 256 144 256H240C248.837 256 256 263.163 256 272V368C256 376.837 248.837 384 240 384H144C135.163 384 128 376.837 128 368V272Z" fill="#EAB308"/>
  <path d="M272 272C272 263.163 279.163 256 288 256H384C392.837 256 400 263.163 400 272V368C400 376.837 392.837 384 384 384H288C279.163 384 272 376.837 272 368V272Z" fill="#3B82F6"/>
</svg> 